<svg width="32" height="32" viewBox="0 0 32 32" fill="none" xmlns="http://www.w3.org/2000/svg">
<rect x="9" y="7.32996" width="18.66" height="11.75" fill="white"/>
<rect x="6.66675" y="7.33325" width="2.33333" height="2.33333" fill="#202020"/>
<rect x="4.33325" y="9.66675" width="2.33333" height="2.33333" fill="#858585"/>
<rect x="2" y="12" width="2.33333" height="2.33333" fill="#C7C7C7"/>
<rect x="9" y="9.66675" width="2.33333" height="2.33333" fill="#202020"/>
<rect x="9" y="5" width="2.33333" height="2.33333" fill="#202020"/>
<rect x="11.3333" y="9.66675" width="2.33333" height="2.33333" fill="#202020"/>
<rect x="11.3333" y="12" width="2.33333" height="2.33333" fill="#202020"/>
<rect x="20.6667" y="12" width="2.33333" height="2.33333" fill="#202020"/>
<rect x="13.6667" y="12" width="2.33333" height="2.33333" fill="#202020"/>
<rect x="23" y="12" width="2.33333" height="2.33333" fill="#202020"/>
<rect x="18.3333" y="14.3333" width="2.33333" height="2.33333" fill="#202020"/>
<rect width="2.33333" height="2.33333" transform="matrix(-1 0 0 1 27.6667 9.66675)" fill="#202020"/>
<rect width="2.33333" height="2.33333" transform="matrix(-1 0 0 1 25.3333 9.66675)" fill="#202020"/>
<rect width="2.33333" height="2.33333" transform="matrix(-1 0 0 1 18.3333 14.3333)" fill="#202020"/>
<rect x="13.6667" y="14.3333" width="2.33333" height="2.33333" fill="#202020"/>
<rect x="20.6667" y="14.3333" width="2.33333" height="2.33333" fill="#202020"/>
<rect x="27.6667" y="7.33325" width="2.33333" height="2.33333" fill="#202020"/>
<rect x="6.66675" y="9.66675" width="2.33333" height="2.33333" fill="#202020"/>
<rect x="4.33325" y="12" width="2.33333" height="2.33333" fill="#858585"/>
<rect x="2" y="14.3333" width="2.33333" height="2.33333" fill="#C7C7C7"/>
<rect x="27.6667" y="9.66675" width="2.33333" height="2.33333" fill="#202020"/>
<rect x="6.66675" y="12" width="2.33333" height="2.33333" fill="#202020"/>
<rect x="4.33325" y="14.3333" width="2.33333" height="2.33333" fill="#858585"/>
<rect x="2" y="16.6667" width="2.33333" height="2.33333" fill="#C7C7C7"/>
<rect x="27.6667" y="12" width="2.33333" height="2.33333" fill="#202020"/>
<rect x="6.66675" y="14.3333" width="2.33333" height="2.33333" fill="#202020"/>
<rect x="4.33325" y="16.6667" width="2.33333" height="2.33333" fill="#858585"/>
<rect x="2" y="19" width="2.33333" height="2.33333" fill="#C7C7C7"/>
<rect x="27.6667" y="14.3333" width="2.33333" height="2.33333" fill="#202020"/>
<rect x="6.66675" y="16.6667" width="2.33333" height="2.33333" fill="#202020"/>
<rect x="4.33325" y="19" width="2.33333" height="2.33333" fill="#858585"/>
<rect x="2" y="21.3333" width="2.33333" height="2.33333" fill="#C7C7C7"/>
<rect x="4.33325" y="21.3333" width="2.33333" height="2.33333" fill="#C7C7C7"/>
<rect x="4.33325" y="23.6667" width="2.33333" height="2.33333" fill="#C7C7C7"/>
<rect x="6.66675" y="23.6667" width="2.33333" height="2.33333" fill="#C7C7C7"/>
<rect x="9" y="23.6667" width="2.33333" height="2.33333" fill="#C7C7C7"/>
<rect x="11.3333" y="23.6667" width="2.33333" height="2.33333" fill="#C7C7C7"/>
<rect x="13.6667" y="23.6667" width="2.33333" height="2.33333" fill="#C7C7C7"/>
<rect x="16" y="23.6667" width="2.33333" height="2.33333" fill="#C7C7C7"/>
<rect x="18.3333" y="23.6667" width="2.33333" height="2.33333" fill="#C7C7C7"/>
<rect x="20.6667" y="23.6667" width="2.33333" height="2.33333" fill="#C7C7C7"/>
<rect x="6.66675" y="19" width="2.33333" height="2.33333" fill="#858585"/>
<rect x="6.66675" y="21.3333" width="2.33333" height="2.33333" fill="#858585"/>
<rect x="9" y="21.3333" width="2.33333" height="2.33333" fill="#858585"/>
<rect x="11.3333" y="21.3333" width="2.33333" height="2.33333" fill="#858585"/>
<rect x="13.6667" y="21.3333" width="2.33333" height="2.33333" fill="#858585"/>
<rect x="16" y="21.3333" width="2.33333" height="2.33333" fill="#858585"/>
<rect x="18.3333" y="21.3333" width="2.33333" height="2.33333" fill="#858585"/>
<rect x="20.6667" y="21.3333" width="2.33333" height="2.33333" fill="#858585"/>
<rect x="23" y="21.3333" width="2.33333" height="2.33333" fill="#858585"/>
<rect x="27.6667" y="16.6667" width="2.33333" height="2.33333" fill="#202020"/>
<rect x="9" y="19" width="2.33333" height="2.33333" fill="#202020"/>
<rect x="11.3333" y="19" width="2.33333" height="2.33333" fill="#202020"/>
<rect x="11.3333" y="5" width="2.33333" height="2.33333" fill="#202020"/>
<rect x="13.6667" y="19" width="2.33333" height="2.33333" fill="#202020"/>
<rect x="13.6667" y="5" width="2.33333" height="2.33333" fill="#202020"/>
<rect x="16" y="19" width="2.33333" height="2.33333" fill="#202020"/>
<rect x="16" y="5" width="2.33333" height="2.33333" fill="#202020"/>
<rect x="18.3333" y="19" width="2.33333" height="2.33333" fill="#202020"/>
<rect x="18.3333" y="5" width="2.33333" height="2.33333" fill="#202020"/>
<rect x="20.6667" y="19" width="2.33333" height="2.33333" fill="#202020"/>
<rect x="20.6667" y="5" width="2.33333" height="2.33333" fill="#202020"/>
<rect x="23" y="19" width="2.33333" height="2.33333" fill="#202020"/>
<rect x="23" y="5" width="2.33333" height="2.33333" fill="#202020"/>
<rect x="25.3333" y="19" width="2.33333" height="2.33333" fill="#202020"/>
<rect x="25.3333" y="5" width="2.33333" height="2.33333" fill="#202020"/>
</svg>
